<svg width="20" height="20" viewBox="0 0 20 20" fill="none" xmlns="http://www.w3.org/2000/svg">
<path d="M15.8164 2.47C15.7363 2.47 15.6563 2.45 15.5863 2.41C13.666 1.42 12.0057 1 10.0153 1C8.03493 1 6.15459 1.47 4.44428 2.41C4.20424 2.54 3.90418 2.45 3.76416 2.21C3.70178 2.09305 3.68779 1.95629 3.72519 1.82913C3.7626 1.70197 3.84842 1.59456 3.96419 1.53C5.82453 0.52 7.8649 0 10.0153 0C12.1457 0 14.006 0.47 16.0464 1.52C16.2964 1.65 16.3865 1.95 16.2564 2.19C16.2169 2.27336 16.1546 2.34387 16.0767 2.3934C15.9989 2.44294 15.9086 2.46949 15.8164 2.47ZM1.50374 7.72C1.41155 7.72086 1.32092 7.69617 1.2419 7.64866C1.16289 7.60116 1.09858 7.5327 1.05611 7.45088C1.01363 7.36906 0.994662 7.27708 1.00129 7.18514C1.00792 7.09319 1.0399 7.00488 1.09367 6.93C2.08385 5.53 3.34408 4.43 4.84435 3.66C7.98492 2.04 12.0057 2.03 15.1562 3.65C16.6565 4.42 17.9167 5.51 18.9069 6.9C18.9453 6.95374 18.9726 7.01455 18.9874 7.07891C19.0021 7.14328 19.004 7.20992 18.9928 7.27501C18.9817 7.34009 18.9577 7.40232 18.9224 7.4581C18.887 7.51388 18.841 7.56211 18.7869 7.6C18.5569 7.76 18.2468 7.71 18.0868 7.48C17.2109 6.24038 16.0474 5.23156 14.6961 4.54C11.8256 3.07 8.15496 3.07 5.29443 4.55C3.93419 5.25 2.79398 6.25 1.89381 7.51C1.8138 7.65 1.66377 7.72 1.50374 7.72ZM7.75488 19.79C7.68929 19.7908 7.62427 19.7779 7.56398 19.752C7.50369 19.7262 7.44947 19.688 7.40482 19.64C6.53466 18.77 6.06458 18.21 5.39445 17C4.70433 15.77 4.34426 14.27 4.34426 12.66C4.34426 9.69 6.88472 7.27 10.0053 7.27C13.1259 7.27 15.6663 9.69 15.6663 12.66C15.6663 12.94 15.4463 13.16 15.1662 13.16C14.8862 13.16 14.6661 12.94 14.6661 12.66C14.6661 10.24 12.5758 8.27 10.0053 8.27C7.43482 8.27 5.34444 10.24 5.34444 12.66C5.34444 14.1 5.6645 15.43 6.27461 16.51C6.91473 17.66 7.35481 18.15 8.12495 18.93C8.31499 19.13 8.31499 19.44 8.12495 19.64C8.01493 19.74 7.88491 19.79 7.75488 19.79ZM14.9262 17.94C13.736 17.94 12.6858 17.64 11.8256 17.05C10.3354 16.04 9.44519 14.4 9.44519 12.66C9.44519 12.38 9.66523 12.16 9.94528 12.16C10.2253 12.16 10.4454 12.38 10.4454 12.66C10.4454 14.07 11.1655 15.4 12.3857 16.22C13.0959 16.7 13.926 16.93 14.9262 16.93C15.1662 16.93 15.5663 16.9 15.9664 16.83C16.2364 16.78 16.4965 16.96 16.5465 17.24C16.5965 17.51 16.4165 17.77 16.1364 17.82C15.5663 17.93 15.0662 17.94 14.9262 17.94ZM12.9158 20C12.8758 20 12.8258 19.99 12.7858 19.98C11.1955 19.54 10.1553 18.95 9.06512 17.88C8.37428 17.198 7.82647 16.385 7.45379 15.4887C7.08111 14.5923 6.89105 13.6307 6.89473 12.66C6.89473 11.04 8.27498 9.72 9.97529 9.72C11.6756 9.72 13.0559 11.04 13.0559 12.66C13.0559 13.73 13.986 14.6 15.1362 14.6C16.2864 14.6 17.2166 13.73 17.2166 12.66C17.2166 8.89 13.966 5.83 9.96529 5.83C7.12477 5.83 4.52429 7.41 3.35408 9.86C2.96401 10.67 2.76397 11.62 2.76397 12.66C2.76397 13.44 2.83399 14.67 3.4341 16.27C3.53411 16.53 3.40409 16.82 3.14404 16.91C2.884 17.01 2.59394 16.87 2.50393 16.62C2.02198 15.3553 1.77456 14.0134 1.77379 12.66C1.77379 11.46 2.00383 10.37 2.45392 9.42C3.78416 6.63 6.7347 4.82 9.96529 4.82C14.5161 4.82 18.2168 8.33 18.2168 12.65C18.2168 14.27 16.8365 15.59 15.1362 15.59C13.4359 15.59 12.0557 14.27 12.0557 12.65C12.0557 11.58 11.1255 10.71 9.97529 10.71C8.82508 10.71 7.89491 11.58 7.89491 12.65C7.89491 14.36 8.55503 15.96 9.76525 17.16C10.7154 18.1 11.6256 18.62 13.0358 19.01C13.3059 19.08 13.4559 19.36 13.3859 19.62C13.3359 19.85 13.1259 20 12.9158 20Z" fill="black"/>
</svg>
