<svg width="20" height="20" viewBox="0 0 20 20" fill="none" xmlns="http://www.w3.org/2000/svg">
<path fill-rule="evenodd" clip-rule="evenodd" d="M2 12C2.55228 12 3 12.4477 3 13V15C3 16.1046 3.89543 17 5 17H15C16.1046 17 17 16.1046 17 15V13C17 12.4477 17.4477 12 18 12C18.5523 12 19 12.4477 19 13V15C19 17.2091 17.2091 19 15 19H5C2.79086 19 1 17.2091 1 15V13C1 12.4477 1.44772 12 2 12Z" fill="black"/>
<path fill-rule="evenodd" clip-rule="evenodd" d="M10 1C10.5523 1 11 1.44772 11 2V11.5858L15.2929 7.29289C15.6834 6.90237 16.3166 6.90237 16.7071 7.29289C17.0976 7.68342 17.0976 8.31658 16.7071 8.70711L10.7071 14.7071C10.3166 15.0976 9.68342 15.0976 9.29289 14.7071L3.29289 8.70711C2.90237 8.31658 2.90237 7.68342 3.29289 7.29289C3.68342 6.90237 4.31658 6.90237 4.70711 7.29289L9 11.5858V2C9 1.44772 9.44772 1 10 1Z" fill="black"/>
</svg>
